<?xml version="1.0" encoding="utf-8"?>
<!-- Generator: Adobe Illustrator 17.1.0, SVG Export Plug-In . SVG Version: 6.00 Build 0)  -->
<!DOCTYPE svg PUBLIC "-//W3C//DTD SVG 1.1//EN" "http://www.w3.org/Graphics/SVG/1.1/DTD/svg11.dtd">
<svg version="1.1" id="All" xmlns="http://www.w3.org/2000/svg" xmlns:xlink="http://www.w3.org/1999/xlink" x="0px" y="0px"
	 viewBox="0 0 150 100" enable-background="new 0 0 150 100" xml:space="preserve">
<path id="Facebook_violet" fill="#9987AA" d="M100,25c0-13.8-11.2-25-25-25S50,11.2,50,25c0,12.5,9.1,22.8,21.1,24.7V32.2h-6.3V25
	h6.3v-5.5c0-6.3,3.7-9.7,9.4-9.7c2.7,0,5.6,0.5,5.6,0.5v6.2H83c-3.1,0-4.1,1.9-4.1,3.9V25h6.9l-1.1,7.2h-5.8v17.5
	C90.9,47.8,100,37.5,100,25z"/>
<path id="Facebook_white" fill="#FFFFFF" d="M100,75c0-13.8-11.2-25-25-25S50,61.2,50,75c0,12.5,9.1,22.8,21.1,24.7V82.2h-6.3V75
	h6.3v-5.5c0-6.3,3.7-9.7,9.4-9.7c2.7,0,5.6,0.5,5.6,0.5v6.2H83c-3.1,0-4.1,1.9-4.1,3.9V75h6.9l-1.1,7.2h-5.8v17.5
	C90.9,97.8,100,87.5,100,75z"/>
<path id="Twitter_violet" fill="#9987AA" d="M125,0c-13.8,0-25,11.2-25,25s11.2,25,25,25s25-11.2,25-25S138.8,0,125,0z M137.4,20.9
	c0,0.2,0,0.5,0,0.7c0,7.5-5.7,16.1-16.1,16.1c-3.2,0-6.2-0.9-8.7-2.5c0.4,0.1,0.9,0.1,1.4,0.1c2.7,0,5.1-0.9,7-2.4
	c-2.5,0-4.6-1.7-5.3-3.9c0.3,0.1,0.7,0.1,1.1,0.1c0.5,0,1-0.1,1.5-0.2c-2.6-0.5-4.5-2.8-4.5-5.6c0,0,0,0,0-0.1
	c0.8,0.4,1.6,0.7,2.6,0.7c-1.5-1-2.5-2.7-2.5-4.7c0-1,0.3-2,0.8-2.8c2.8,3.4,7,5.7,11.7,5.9c-0.1-0.4-0.1-0.8-0.1-1.3
	c0-3.1,2.5-5.7,5.7-5.7c1.6,0,3.1,0.7,4.1,1.8c1.3-0.3,2.5-0.7,3.6-1.4c-0.4,1.3-1.3,2.4-2.5,3.1c1.1-0.1,2.2-0.4,3.3-0.9
	C139.5,19.1,138.5,20.1,137.4,20.9z"/>
<path id="Twitter_white" fill="#FFFFFF" d="M125,50c-13.8,0-25,11.2-25,25s11.2,25,25,25s25-11.2,25-25S138.8,50,125,50z
	 M137.4,70.9c0,0.2,0,0.5,0,0.7c0,7.5-5.7,16.1-16.1,16.1c-3.2,0-6.2-0.9-8.7-2.5c0.4,0.1,0.9,0.1,1.4,0.1c2.7,0,5.1-0.9,7-2.4
	c-2.5,0-4.6-1.7-5.3-3.9c0.3,0.1,0.7,0.1,1.1,0.1c0.5,0,1-0.1,1.5-0.2c-2.6-0.5-4.5-2.8-4.5-5.6c0,0,0,0,0-0.1
	c0.8,0.4,1.6,0.7,2.6,0.7c-1.5-1-2.5-2.7-2.5-4.7c0-1,0.3-2,0.8-2.8c2.8,3.4,7,5.7,11.7,5.9c-0.1-0.4-0.1-0.8-0.1-1.3
	c0-3.1,2.5-5.7,5.7-5.7c1.6,0,3.1,0.7,4.1,1.8c1.3-0.3,2.5-0.7,3.6-1.4c-0.4,1.3-1.3,2.4-2.5,3.1c1.1-0.1,2.2-0.4,3.3-0.9
	C139.5,69.1,138.5,70.1,137.4,70.9z"/>
<path id="Mail_violet" fill="#9987AA" d="M25,0C11.2,0,0,11.2,0,25s11.2,25,25,25s25-11.2,25-25S38.8,0,25,0z M36.8,16.8l-11.2,8.4
	c-0.3,0.2-0.7,0.2-1,0l-11.2-8.4H36.8z M38.1,32.4c0,0.4-0.4,0.8-0.8,0.8H12.7c-0.4,0-0.8-0.4-0.8-0.8V17.7l11.6,8.7
	c0.4,0.3,0.9,0.5,1.5,0.5s1-0.2,1.5-0.5l11.6-8.7V32.4z"/>
<path id="Mail_white" fill="#FFFFFF" d="M25,50C11.2,50,0,61.2,0,75s11.2,25,25,25s25-11.2,25-25S38.8,50,25,50z M36.8,66.8
	l-11.2,8.4c-0.3,0.2-0.7,0.2-1,0l-11.2-8.4H36.8z M38.1,82.4c0,0.4-0.4,0.8-0.8,0.8H12.7c-0.4,0-0.8-0.4-0.8-0.8V67.7l11.6,8.7
	c0.4,0.3,0.9,0.5,1.5,0.5s1-0.2,1.5-0.5l11.6-8.7V82.4z"/>
</svg>
